<?xml version="1.0" encoding="UTF-8"?>
<svg xmlns="http://www.w3.org/2000/svg" viewBox="0 0 1080.7 236.85">
  <defs>
    <style>
      .cls-1 {
        fill: #f2f1f0;
      }

      .cls-2 {
        fill: #e13c30;
      }
    </style>
  </defs>
  <g id="Layer_1" data-name="Layer 1">
    <g>
      <path class="cls-1" d="M129.9,129.85c11.89-9.57,18.85-24.35,18.85-40.89,0-33.05-24.64-55.09-60.59-55.09H0v44.62l79.44.04c11.32,0,17.69,6.09,17.69,16.52s-6.37,15.95-17.69,15.95l-79.44-.02v125.87h89.59c40.89,0,67.28-23.49,67.28-58.28,0-20.59-10.15-38.57-26.97-48.72ZM84.96,190.16h-33.06v-36.53h33.06c11.31,0,17.98,6.96,17.98,18.26s-6.67,18.26-17.98,18.26Z"/>
      <path class="cls-1" d="M223.56,190.12v-32.45h72.78v-46.69l-126.72-.1v125.97h135.12v-46.73h-81.18ZM302.43,78.49v-44.62h-132.8v44.62h132.8Z"/>
      <path class="cls-1" d="M812.35,190.12v-32.45h72.78v-46.69l-126.72-.1v125.97h135.12v-46.73h-81.18ZM891.22,78.49v-44.62h-132.8v44.62h132.8Z"/>
      <path class="cls-1" d="M745.5,190.12v46.72h-159.19v-29.58l82.93-128.78h-79.16v-44.62h153.39v29.29l-82.06,126.97h84.09Z"/>
      <path class="cls-1" d="M1026.77,33.87h53.93v202.97h-41.76l-73.94-101.49.87,52.19v49.29h-53.93V33.87h41.18l74.52,102.07-.87-45.81v-56.25Z"/>
      <path class="cls-1" d="M447.83,41.85c-10.84,8.02-20.74,16.32-29.82,24.8-6.28,5.84-12.18,11.79-17.68,17.74-8.91,9.65-16.83,19.36-23.85,28.97-9.4,12.82-17.24,25.45-23.73,37.45-22.66,41.75-29.41,75.87-30.76,83.85V33.67h80.85c16.48,0,31.61,2.86,45,8.17Z"/>
      <path class="cls-1" d="M508.62,135.11c0,60.56-43.48,101.44-105.79,101.44h-80.85v-.53c9.69-14.47,20.04-27.53,30.76-39.34,7.74-8.54,15.68-16.4,23.73-23.66,25-22.57,50.95-39.24,74.76-51.48,5.31-2.74,10.52-5.27,15.6-7.57,13.25-6.05,25.54-10.7,36.24-14.24,3.62,10.78,5.54,22.64,5.54,35.37Z"/>
      <rect class="cls-1" x="520.49" y="99.72" width="51.1" height="136.99"/>
    </g>
  </g>
  <g id="Layer_2" data-name="Layer 2">
    <circle class="cls-2" cx="544" cy="39.28" r="39.28"/>
  </g>
</svg>