<?xml version="1.0" encoding="UTF-8"?>
<svg id="Layer_1" xmlns="http://www.w3.org/2000/svg" version="1.1" viewBox="0 0 800 800">
  <!-- Generator: Adobe Illustrator 29.8.2, SVG Export Plug-In . SVG Version: 2.1.1 Build 3)  -->
  <defs>
    <style>
      .st0 {
        fill: #fe0;
      }
    </style>
  </defs>
  <path class="st0" d="M644.4,366.7c-1.6,0-3.1,0-4.6.1l-42.1-177.9h69v-66.7h-153.3l36.8,155.6h-194.7v-64.4h-179.3v66.7h64.9l-42.2,92.9c-13.8-4-28.4-6.2-43.4-6.2-85.9,0-155.6,69.6-155.6,155.6s69.6,155.6,155.6,155.6,149.4-63.7,155.1-144.3h31.6c11.5,20,33.1,33.4,57.8,33.4,36.8,0,66.7-29.8,66.7-66.7s-26.4-63.1-60.2-66.3l-40.6-89.4h200.2l9.1,38.5c-51.1,25.5-86.2,78.3-86.2,139.3s69.6,155.6,155.6,155.6,155.6-69.6,155.6-155.6-69.6-155.6-155.6-155.6ZM155.6,611.1c-49,0-88.9-39.9-88.9-88.9s39.9-88.9,88.9-88.9,10.3.5,15.3,1.3l-2,4.4-22.4,49.2,29.4,45h53.6s14.2,0,14.2,0c-5.5,43.8-42.9,77.7-88.2,77.7ZM342.3,466.8h-41.4c-9.2-24.1-24.2-45.3-43.2-61.9l31.2-68.7,56.9,125.2c-1.2,1.7-2.4,3.5-3.5,5.4ZM644.4,611.1c-49,0-88.9-39.9-88.9-88.9s14-54.9,35.7-71.2l19.5,82.5h68.5l-23.5-99.4c43.7,5.6,77.6,43,77.6,88.1,0,49-39.9,88.9-88.9,88.9Z"/>
</svg>