<?xml version="1.0" encoding="UTF-8"?>
<svg id="Layer_1" xmlns="http://www.w3.org/2000/svg" version="1.1" viewBox="0 0 800 800">
  <!-- Generator: Adobe Illustrator 29.8.2, SVG Export Plug-In . SVG Version: 2.1.1 Build 3)  -->
  <defs>
    <style>
      .st0 {
        fill: #fe0;
      }
    </style>
  </defs>
  <path class="st0" d="M466.7,366.7c0-18.4,14.9-33.3,33.3-33.3s33.3,14.9,33.3,33.3-14.9,33.3-33.3,33.3-33.3-14.9-33.3-33.3ZM300,600c18.4,0,33.3-14.9,33.3-33.3s-14.9-33.3-33.3-33.3-33.3,14.9-33.3,33.3,14.9,33.3,33.3,33.3ZM100,466.7c0-127.1,80.2-240.3,200-282.6v-84.1h-33.3c-18.4,0-33.3-14.9-33.3-33.3s14.9-33.3,33.3-33.3h266.7c18.4,0,33.3,14.9,33.3,33.3s-14.9,33.3-33.3,33.3h-33.3v84.1c156.2,55.2,238.1,226.6,182.8,382.8-55.2,156.2-226.6,238.1-382.8,182.8-119.9-42.4-200.1-155.9-200-283.1ZM171.1,422.9c199.6-67.2,255.2,29.2,458.6,83.3,21.5-119.7-53.4-235.6-171.4-265.3-14.7-3.8-25-17.1-25-32.3v-108.7h-66.7v108.7c0,15.2-10.3,28.5-25,32.3-87.2,22.6-153.7,93.4-170.5,181.9ZM168.6,494.7c15.2,127.8,131.2,219,258.9,203.7,78.2-9.3,146.4-57.5,181.3-128.2-212.5-57.4-251.4-150.2-440.2-75.6Z"/>
</svg>