<?xml version="1.0" encoding="UTF-8"?>
<svg id="_x32_" xmlns="http://www.w3.org/2000/svg" version="1.1" viewBox="0 0 800 800">
  <!-- Generator: Adobe Illustrator 29.8.2, SVG Export Plug-In . SVG Version: 2.1.1 Build 3)  -->
  <defs>
    <style>
      .st0 {
        fill: #fe0;
      }
    </style>
  </defs>
  <g>
    <path class="st0" d="M400,0C179.1,0,0,179.1,0,400s179.1,400,400,400,400-179.1,400-400S620.9,0,400,0ZM400,725c-179.2,0-325-145.8-325-325S220.8,75,400,75s325,145.8,325,325-145.8,325-325,325Z"/>
    <path class="st0" d="M400,125c-151.6,0-275,123.4-275,275s123.4,275,275,275,275-123.4,275-275S551.6,125,400,125ZM400,650c-137.8,0-250-112.2-250-250s112.2-250,250-250,250,112.2,250,250-112.1,250-250,250Z"/>
  </g>
  <path class="st0" d="M488.1,276.1h68.1v218.4h-84.3v-63l.9-51.5-57.8,30.7h-39.9l-58.3-31.1,1.3,51.8v63h-84.2v-218.4h68.6l93.2,66.3,92.3-66.3h.1Z"/>
</svg>