<?xml version="1.0" encoding="UTF-8"?>
<svg id="Calque_2" data-name="Calque 2" xmlns="http://www.w3.org/2000/svg" viewBox="0 0 869.83 187.63">
  <defs>
    <style>
      .cls-1 {
        fill: #e13c30;
      }

      .cls-1, .cls-2 {
        stroke-width: 0px;
      }

      .cls-2 {
        fill: #f2f1f0;
      }
    </style>
  </defs>
  <g id="Black_Bckgn" data-name="Black Bckgn">
    <g>
      <path class="cls-2" d="M126.26,140.72c0,28.01-21.24,46.91-54.15,46.91H0V24.26h70.95c28.94,0,48.78,17.74,48.78,44.34,0,13.3-5.6,25.21-15.17,32.91,13.54,8.17,21.7,22.64,21.7,39.21ZM41.78,60.2v26.14h22.17c9.1,0,14.24-4.67,14.24-12.84s-5.13-13.3-14.24-13.3h-22.17ZM68.38,150.06c9.1,0,14.47-5.83,14.47-14.7s-5.37-14.7-14.47-14.7h-26.61v29.41h26.61Z"/>
      <path class="cls-2" d="M179.94,148.66h65.35v38.97h-108.76V24.26h106.89v38.27h-63.48v24.5h58.58v37.57h-58.58v24.04Z"/>
      <path class="cls-2" d="M600.03,147.25v40.38h-128.13v-23.8l66.75-99.89-55.08.23V24.26h114.82v23.57l-66.05,99.65,67.68-.23Z"/>
      <path class="cls-2" d="M653.95,148.66h65.35v38.97h-108.76V24.26h106.89v38.27h-63.48v24.5h58.58v37.57h-58.58v24.04Z"/>
      <path class="cls-2" d="M826.42,24.26h43.41v163.37h-33.61l-59.51-81.68.7,42.01v39.67h-43.41V24.26h33.14l59.98,82.15-.7-36.87V24.26Z"/>
    </g>
    <path class="cls-2" d="M360.44,30.68c-8.72,6.45-16.69,13.14-24,19.96-5.06,4.7-9.8,9.49-14.23,14.28-7.17,7.77-13.54,15.58-19.2,23.32-7.56,10.32-13.87,20.48-19.1,30.14-18.24,33.6-23.68,61.07-24.76,67.49V24.1h65.08c13.26,0,25.44,2.3,36.22,6.58Z"/>
    <path class="cls-2" d="M409.38,105.75c0,48.74-35,81.64-85.15,81.64h-65.08v-.42c7.8-11.65,16.13-22.16,24.76-31.66,6.23-6.87,12.62-13.2,19.1-19.04,20.12-18.16,41.01-31.58,60.17-41.43,4.27-2.21,8.47-4.24,12.56-6.09,10.66-4.87,20.56-8.61,29.17-11.46,2.91,8.67,4.46,18.23,4.46,28.47Z"/>
    <rect class="cls-2" x="418.93" y="77.7" width="41.13" height="109.68"/>
    <circle class="cls-1" cx="437.85" cy="31.61" r="31.61"/>
  </g>
</svg>