<?xml version="1.0" encoding="UTF-8"?>
<svg id="Calque_2" data-name="Calque 2" xmlns="http://www.w3.org/2000/svg" viewBox="0 0 869.82 190.63">
  <defs>
    <style>
      .cls-1 {
        fill: #111921;
      }

      .cls-1, .cls-2 {
        stroke-width: 0px;
      }

      .cls-2 {
        fill: #e13c30;
      }
    </style>
  </defs>
  <g id="White_Bckg" data-name="White Bckg">
    <g>
      <path class="cls-1" d="M104.55,104.51c9.57-7.7,15.17-19.6,15.17-32.91,0-26.6-19.83-44.34-48.77-44.34H0v35.91l63.94.03c9.11,0,14.24,4.9,14.24,13.3s-5.13,12.84-14.24,12.84l-63.94-.02v101.31h72.11c32.91,0,54.15-18.91,54.15-46.91,0-16.57-8.17-31.04-21.71-39.21ZM68.38,153.05h-26.61v-29.4h26.61c9.1,0,14.47,5.6,14.47,14.7s-5.37,14.7-14.47,14.7Z"/>
      <path class="cls-1" d="M179.94,153.02v-26.12h58.58v-37.58l-101.99-.08v101.39h108.75v-37.61h-65.34ZM243.42,63.17V27.26h-106.89v35.91h106.89Z"/>
      <path class="cls-1" d="M653.84,153.02v-26.12h58.58v-37.58l-101.99-.08v101.39h108.75v-37.61h-65.34ZM717.32,63.17V27.26h-106.89v35.91h106.89Z"/>
      <path class="cls-1" d="M600.03,153.03v37.6h-128.13v-23.8l66.75-103.65h-52.15V27.26h111.89v23.57l-66.05,102.19h67.68Z"/>
      <path class="cls-1" d="M826.42,27.26h43.41v163.37h-33.61l-59.51-81.68.7,42.01v39.67h-43.41V27.26h33.14l59.98,82.15-.7-36.87V27.26Z"/>
      <path class="cls-1" d="M360.44,33.68c-8.72,6.45-16.69,13.14-24,19.96-5.06,4.7-9.8,9.49-14.23,14.28-7.17,7.77-13.54,15.58-19.2,23.32-7.56,10.32-13.87,20.48-19.1,30.14-18.24,33.6-23.68,61.07-24.76,67.49V27.1h65.08c13.26,0,25.44,2.3,36.22,6.58Z"/>
      <path class="cls-1" d="M409.37,108.75c0,48.74-35,81.64-85.15,81.64h-65.08v-.42c7.8-11.65,16.13-22.16,24.76-31.66,6.23-6.87,12.62-13.2,19.1-19.04,20.12-18.16,41.01-31.58,60.17-41.43,4.27-2.21,8.47-4.24,12.56-6.09,10.66-4.87,20.56-8.61,29.17-11.46,2.91,8.67,4.46,18.23,4.46,28.47Z"/>
      <rect class="cls-1" x="418.93" y="80.26" width="41.13" height="110.26"/>
      <circle class="cls-2" cx="437.85" cy="31.61" r="31.61"/>
    </g>
  </g>
</svg>