<?xml version="1.0" encoding="UTF-8"?>
<svg id="Layer_2" data-name="Layer 2" xmlns="http://www.w3.org/2000/svg" viewBox="0 0 628.01 559.55">
  <defs>
    <style>
      .cls-1 {
        fill: #111921;
      }

      .cls-2 {
        fill: #e13c30;
      }
    </style>
  </defs>
  <g id="Icon_White" data-name="Icon White">
    <path class="cls-1" d="M302.47,91.61c-26.04,19.26-49.84,39.23-71.68,59.61-15.1,14.03-29.27,28.33-42.5,42.64-21.41,23.19-40.44,46.52-57.32,69.62-22.58,30.81-41.43,61.16-57.04,90.01C19.45,453.84,3.23,535.85,0,555.02V71.98h194.32c39.6,0,75.98,6.87,108.15,19.64Z"/>
    <path class="cls-1" d="M448.58,315.76c0,145.55-104.5,243.79-254.26,243.79H0v-1.26c23.28-34.79,48.16-66.16,73.92-94.54,18.61-20.53,37.69-39.42,57.04-56.86,60.08-54.24,122.46-94.31,179.69-123.72,12.76-6.59,25.3-12.67,37.5-18.19,31.84-14.54,61.39-25.72,87.11-34.23,8.7,25.9,13.33,54.42,13.33,85Z"/>
    <circle class="cls-2" cx="533.62" cy="94.4" r="94.4"/>
  </g>
</svg>