<?xml version="1.0" encoding="UTF-8"?>
<svg id="Calque_2" data-name="Calque 2" xmlns="http://www.w3.org/2000/svg" viewBox="0 0 1209.24 1216.74">
  <defs>
    <style>
      .cls-1 {
        fill: #111921;
      }

      .cls-1, .cls-2 {
        stroke-width: 0px;
      }

      .cls-2 {
        fill: #e13c30;
      }

      .cls-3 {
        fill: #f2f1f0;
        stroke: #231f20;
        stroke-miterlimit: 10;
        stroke-width: 1.2px;
      }
    </style>
  </defs>
  <g id="Icon_White" data-name="Icon White">
    <rect class="cls-3" x=".6" y=".6" width="1208.04" height="1215.54"/>
    <path class="cls-1" d="M591.28,413.91c-26.04,19.26-49.84,39.23-71.68,59.61-15.1,14.03-29.27,28.33-42.5,42.64-21.41,23.19-40.44,46.52-57.32,69.62-22.58,30.81-41.43,61.16-57.04,90.01-54.47,100.34-70.7,182.35-73.92,201.52v-483.04h194.32c39.6,0,75.98,6.87,108.15,19.64Z"/>
    <path class="cls-1" d="M737.39,638.06c0,145.55-104.5,243.79-254.26,243.79h-194.32v-1.26c23.28-34.79,48.16-66.16,73.92-94.54,18.61-20.53,37.69-39.42,57.04-56.86,60.08-54.24,122.46-94.31,179.69-123.72,12.76-6.59,25.3-12.67,37.5-18.19,31.84-14.54,61.39-25.72,87.11-34.23,8.7,25.9,13.33,54.42,13.33,85Z"/>
    <circle class="cls-2" cx="822.43" cy="416.7" r="94.4"/>
  </g>
</svg>