<?xml version="1.0" encoding="UTF-8"?>
<svg id="Layer_2" data-name="Layer 2" xmlns="http://www.w3.org/2000/svg" viewBox="0 0 247.34 495.54">
  <defs>
    <style>
      .cls-1 {
        fill: none;
        stroke: #000;
        stroke-miterlimit: 10;
        stroke-width: 38.47px;
      }
    </style>
  </defs>
  <g id="Layer_2-2" data-name="Layer 2">
    <path class="cls-1" d="M90.16,227.61h-50.9v-57.21h126.17v248.69h62.67v57.21H19.23v-57.21h70.93v-191.49ZM169.16,70.85c0,7.1-1.29,13.77-3.87,20-2.58,6.24-6.19,11.67-10.81,16.29-4.63,4.63-10.06,8.28-16.29,10.97-6.24,2.69-13.01,4.03-20.32,4.03s-14.14-1.34-20.49-4.03c-6.34-2.69-11.83-6.34-16.45-10.97-4.63-4.62-8.23-10.05-10.81-16.29-2.58-6.24-3.87-12.9-3.87-20s1.29-13.76,3.87-20c2.58-6.24,6.18-11.72,10.81-16.45,4.62-4.73,10.11-8.44,16.45-11.13,6.34-2.69,13.17-4.03,20.49-4.03s14.08,1.35,20.32,4.03c6.24,2.69,11.66,6.4,16.29,11.13,4.62,4.73,8.23,10.22,10.81,16.45,2.58,6.24,3.87,12.9,3.87,20Z"/>
  </g>
</svg>